<svg xmlns="http://www.w3.org/2000/svg" viewBox="0 0 1112.82 329.65"><defs><style>.cls-1{fill:#23384c;}.cls-2{fill:#5585c4;}.cls-3{fill:#efc859;}</style></defs><g id="Layer_2" data-name="Layer 2"><g id="Layer_1-2" data-name="Layer 1"><path class="cls-1" d="M521.91,164.81q0,27.65-10.12,47.49t-27.68,30.51q-17.58,10.66-39.91,10.66t-40-10.66q-17.58-10.67-27.69-30.55t-10.11-47.45q0-27.65,10.11-47.5T404.21,86.8q17.57-10.65,40-10.66T484.11,86.8q17.56,10.67,27.68,30.51T521.91,164.81Zm-25.79,0q0-21.08-6.79-35.53t-18.54-21.91a51.19,51.19,0,0,0-53.22,0q-11.71,7.45-18.5,21.91t-6.79,35.53q0,21.06,6.79,35.52t18.5,21.92a51.25,51.25,0,0,0,53.22,0q11.76-7.47,18.54-21.92T496.12,164.81Z"/><path class="cls-1" d="M544.41,299.66v-178H569v21h2.11a69.47,69.47,0,0,1,6.32-9.35A36.18,36.18,0,0,1,588.91,124q7.33-4,19.39-4a50.56,50.56,0,0,1,28,7.92q12.3,7.92,19.34,22.84t7,35.91q0,21-7,35.94t-19.21,23a49.56,49.56,0,0,1-27.9,8q-11.81,0-19.26-4a36.42,36.42,0,0,1-11.67-9.27,70.61,70.61,0,0,1-6.49-9.44h-1.52v68.69Zm24.7-113.28a66.4,66.4,0,0,0,4,23.94,36,36,0,0,0,11.46,16.06q7.5,5.76,18.37,5.77,11.29,0,18.88-6a37.14,37.14,0,0,0,11.51-16.39,65.68,65.68,0,0,0,3.91-23.35,65.17,65.17,0,0,0-3.83-23,35.7,35.7,0,0,0-11.46-16.09q-7.63-5.91-19-5.9-10.95,0-18.5,5.64A34.61,34.61,0,0,0,573,162.78,65.93,65.93,0,0,0,569.11,186.38Z"/><path class="cls-1" d="M780.07,153.26l-22.84,4.05a27.68,27.68,0,0,0-4.51-8.35,23,23,0,0,0-8.3-6.49,30,30,0,0,0-13.07-2.53q-10.71,0-17.87,4.77T706.32,157a12.88,12.88,0,0,0,4.8,10.45q4.82,4,15.51,6.49l20.57,4.72q17.87,4.13,26.63,12.73t8.76,22.33a33.86,33.86,0,0,1-6.7,20.69q-6.69,9.06-18.62,14.2t-27.6,5.15q-21.75,0-35.49-9.32t-16.85-26.5l24.35-3.71q2.28,9.53,9.36,14.37t18.46,4.84q12.39,0,19.8-5.18t7.42-12.68a13.26,13.26,0,0,0-4.51-10.2q-4.51-4.12-13.78-6.24l-21.91-4.8q-18.12-4.14-26.76-13.15t-8.64-22.84a32.6,32.6,0,0,1,6.41-20.06,42.27,42.27,0,0,1,17.69-13.44A65.13,65.13,0,0,1,731.1,120q21,0,33,9.06A42.6,42.6,0,0,1,780.07,153.26Z"/><path class="cls-1" d="M804.43,78.5H836l55,134.18h2L948,78.5h31.6V251.11H954.79V126.21h-1.61l-50.9,124.65H881.71l-50.9-124.74h-1.6v125H804.43Z"/><path class="cls-1" d="M1027.53,121.66l28.57,50.4,28.82-50.4h27.56l-40.37,64.72,40.71,64.73h-27.56l-29.16-48.38L1027,251.11H999.38l40.28-64.73-39.78-64.72Z"/><path class="cls-2" d="M216,162.64c-.81,2.26-3,2.4-5.35,1.58-1.47-.52-4-1.19-4.55-.55-1.1,1.39-1.9,3.78-1.46,5.38.4,1.42,2.6,2.38,4.07,3.45.31.22.91,0,1.38,0,2.06,0,3.53.85,3.3,3.11s-1.85,2.7-3.85,2.47c-4.39-.51-6,.74-6.65,5.17s-4.23,6.51-8.56,5.05c-3.59-1.22-4.58-.34-4.44,3.32a10,10,0,0,1-1.21,5.27c-1.18,2-1,3.08,1.14,3.64,2.33.6,3.29,2.11,2.36,4.12a3.88,3.88,0,0,1-3.24,1.77c-2.24-.33-2.9-2.09-2.19-4.27s-.27-3.06-2.42-2.92c-3.12.19-5.55-1.31-6.1-4.15a9.47,9.47,0,0,1,1.33-6.41c1.68-2.57,4.56-2.34,7.31-1.31s4.31,0,3.92-3c-.36-2.76-.07-5.21,2.45-6.81s5.12-1.12,7.9.27c1.26.63,3.6-.37,5.16-1.19.62-.32,1-2.77.54-3.17-1.35-1.18-3.45-2.82-4.77-2.47-3.1.83-5.76,1.22-8.73-.44-2.41-1.34-4.85.63-4.72,3.46.33,7.09-3.41,10.17-10.29,8.45-2.59-.64-4.66.69-4.75,3.5-.11,3.09-1.11,5.44-4.26,5.94s-4.37-1.61-5.65-4.17c-1.66-3.32-5.31-2.09-8.18-2.52-.64-.1-1.48.6-2,.38-1.06-.42-2.58-1.08-2.79-1.91s.89-2.12,1.71-2.89c2.15-2,4.87-3.58,6.54-5.91.69-1-.14-4.05-1.27-5.06-1.59-1.43-3,0-3.9,1.87-1.9,4-5.19,6-9.65,5.58a9,9,0,0,1-8.42-6.83c-.76-2.69-2.87-3.37-4.44-2.4a8.14,8.14,0,0,0-3.17,5.25c-.14.88,2.32,3,3.69,3.12,3.12.17,5.17,1.09,6,4.19.64,2.32,2,2.5,4,1.42s4.15-1.23,5,1.17a4.6,4.6,0,0,1-1.07,4.16c-2,1.49-3.95.62-5.12-1.71-1-2.11-2.44-2.21-4.17-.66-2,1.75-4.21,2.1-6.44.6s-2.39-3.75-1.73-6.25c.88-3.32-1.24-5.39-4.56-4.64a8.29,8.29,0,0,1-9.11-3.63,8.77,8.77,0,0,1,.72-9.59,8.63,8.63,0,0,1,9.6-2.29c1,.35,2.77.82,3.12.38.88-1.11,1.79-2.83,1.53-4.07-.4-1.87-2.09-2.2-3.91-1.18-2.37,1.32-4.77,1.08-6.13-1.28a5.38,5.38,0,0,1,0-4.54,4.93,4.93,0,0,1,3.93-2.17c1.42.18,3.46,1.62,3.8,2.9.86,3.15,2.1,4.36,5.46,3.39,2.22-.65,4,.51,4.18,3s-1.28,3.55-3.66,3.73c-4.17.3-5.3,1.89-3.51,5.18a4,4,0,0,0,2.87,1.8,5.06,5.06,0,0,0,3-1.67c2.1-2,3.87-4.48,6.14-6.32,2.1-1.69,2.32-4.29,0-5.89-5-3.36-4.81-7.16.48-10,2.23-1.19,2.73-3.17,1.79-5-1.14-2.21-3-.9-4.49,0-2.34,1.45-4.7,2.59-5.07,6.06-.29,2.72-2.88,3.62-5.46,2.84s-3.44-2.79-2.88-5.27,2.52-3.63,5-3.28c5.84.81,9-1.24,10.3-6.63.6-2.58,2.46-4.44,5-4a8.17,8.17,0,0,1,4.93,3.58c1.23,2.21.15,4.56-2.13,6-4.61,2.91-4.62,2.94-1.51,7.7a5,5,0,0,1-.69,6.71c-3.53,3.74-3.07,4.95,1.58,7.22,2.7,1.32,4,.35,5.65-1.4,1.38-1.47,1.81-2.68.7-4.61-2.42-4.21-1.89-8.4,1.16-12.08a10.12,10.12,0,0,1,12-3.29c3.26,1.21,4.6-1.16,4.72-2.93s-1.62-4.79-2.9-5c-3.55-.56-7.41-2.6-11,.61-.66.58-3.44-.06-4.13-1s-.63-3.6.15-4.25c1-.84,4-1.13,4.49-.46,2.82,3.87,7,2.56,10.62,3.31.81.17,2.13-.74,2.77-1.52,2.18-2.64,4.77-3.42,7.78-1.91,2.78,1.38,3.7,3.88,2.84,6.81-1,3.34-3.41,4.3-6.78,4.23a5.39,5.39,0,0,0-3.72,2.25c-.53.75-.22,2.59.36,3.55a12.35,12.35,0,0,1,1.44,10.09c-.81,3.1,1.62,5.24,4.75,4.32.79-.23,1.58-.42,2.37-.62,3.22-.82,3.85-3,1.61-5.52-3.3-3.74-3.7-8.91-1-12.61a9.8,9.8,0,0,1,12.29-2.86c3.63,1.79,5.2,4.92,5.22,8.85,0,4.35,1.25,5.3,5.38,3.88,2.21-.76,4.16-.24,5.09,1.77.58,1.26.78,3.61,0,4.36a6.58,6.58,0,0,1-4.82,1.57c-1-.1-2.24-1.89-2.63-3.15-1.18-3.76-2.71-4.1-5.89-1.93a16.48,16.48,0,0,1-7.6,2.77c-4.12.32-5.21,1.49-3.5,5.27,1.3,2.87.67,5.44-1.8,6.64s-4.63.87-6.25-1.36a6.18,6.18,0,0,1-.89-2.92c-.4-4.12-3-5.39-6.5-3.09s-7.22,2.83-10.95.74c-2-1.12-3.23-.57-4.51,1s-3.23,2.66-1.42,5c.41.53.39,1.37.77,2,.69,1,1.42,2.68,2.33,2.82s2.4-.92,3.25-1.81c2.4-2.54,5.69-3.19,8.56-1.44a6.28,6.28,0,0,1,2.46,7.69c-1.07,2.9-4,4.4-7.46,3.76-2.65-.49-7.63,3-7.74,5.64,0,.73.67,2,1.23,2.16,2.86.63,5.68,1.94,8.63-.47,1.15-.94,3.38-.57,5.13-.73,1-.1,2.52.33,3-.2a5.63,5.63,0,0,0,.91-3.35c.09-2.06-.6-4.29,0-6.16,1.3-4.15,6.22-5.56,10.56-3.41,3.83,1.88,5.86.58,5.77-4a6.35,6.35,0,0,1,4-6.84c2.86-1.35,5.46-.71,7.79,1.34,3.56,3.13,3.77,3.08,6.36-.92,1.49-2.31,3.81-2.83,5.69-1.23A5.43,5.43,0,0,1,216,162.64Z"/><path class="cls-3" d="M329.65,164.83q0,7-.58,14a7,7,0,0,1-5.32,6.25L305,189.58a7,7,0,0,0-5.18,5.33,136.82,136.82,0,0,1-3.64,13.2,7,7,0,0,0,1.7,7.22l13.82,13.55a7,7,0,0,1,1.34,8.05A165,165,0,0,1,300.11,259a7,7,0,0,1-7.71,2.77l-18.49-5.43a7,7,0,0,0-7.12,2c-3.1,3.35-6.37,6.58-9.81,9.65a7,7,0,0,0-2.16,7.11L260,293.72a7,7,0,0,1-2.84,7.67q-5.25,3.57-10.88,6.75c-3.75,2.15-7.57,4.11-11.38,5.9a7,7,0,0,1-8-1.46l-13.41-14a6.88,6.88,0,0,0-7-1.83c-4.5,1.42-9,2.63-13.61,3.6a6.83,6.83,0,0,0-5.21,5.06L182.83,324a6.93,6.93,0,0,1-6.31,5.21,168.89,168.89,0,0,1-25.65-.17,7,7,0,0,1-6.25-5.3L140.07,305a6.9,6.9,0,0,0-5.2-5.14,127.91,127.91,0,0,1-13.48-3.7,6.92,6.92,0,0,0-7.07,1.76l-13.55,13.76a7,7,0,0,1-8,1.36,164,164,0,0,1-22.07-13,7,7,0,0,1-2.77-7.69l5.41-18.51a6.9,6.9,0,0,0-1.92-7q-5.15-4.72-9.87-10a6.87,6.87,0,0,0-7-2l-18.58,5.17a7,7,0,0,1-7.67-2.86q-3.57-5.28-6.77-10.92t-5.88-11.38a7,7,0,0,1,1.46-8l14-13.31a7,7,0,0,0,1.81-7.2c-1.38-4.4-2.55-8.84-3.48-13.31a7,7,0,0,0-5.08-5.41L5.61,182.85a7,7,0,0,1-5.22-6.33c-.27-3.91-.39-7.8-.39-11.69H70.61a94.2,94.2,0,0,0,188.33,3.63c0-1.2.08-2.43.08-3.63Z"/><path class="cls-2" d="M329.65,164.83H259a94.2,94.2,0,0,0-188.33-3.64c0,1.22-.08,2.41-.08,3.64H0c0-4.66.19-9.29.58-13.92a7,7,0,0,1,5.3-6.23l18.76-4.55a6.9,6.9,0,0,0,5.14-5.2,132.68,132.68,0,0,1,3.68-13.51,6.91,6.91,0,0,0-1.76-7.06L17.91,100.81a7,7,0,0,1-1.37-8,167.61,167.61,0,0,1,13-22.11,7,7,0,0,1,7.71-2.75l18.49,5.43a7,7,0,0,0,7.14-2.06q4.62-5,9.75-9.59a7,7,0,0,0,2.16-7.13L69.6,36a7,7,0,0,1,2.86-7.65q5.28-3.6,10.92-6.77c3.73-2.15,7.61-4.13,11.48-5.92a6.92,6.92,0,0,1,8,1.5l13.29,13.93a7,7,0,0,0,7.24,1.79,132.81,132.81,0,0,1,13.22-3.5A7,7,0,0,0,142,24.29l4.86-18.68A7,7,0,0,1,153.13.43a163.38,163.38,0,0,1,25.61.15A7,7,0,0,1,185,5.86l4.59,18.8a6.91,6.91,0,0,0,5.18,5.12,133.58,133.58,0,0,1,13.47,3.72,7,7,0,0,0,7.08-1.76l13.53-13.8a7,7,0,0,1,8.07-1.34,165.22,165.22,0,0,1,22.09,13,7,7,0,0,1,2.77,7.71l-5.43,18.45a7,7,0,0,0,2,7.12A135.1,135.1,0,0,1,268,72.67a7,7,0,0,0,7.13,2.14l18.58-5.15a7,7,0,0,1,7.65,2.84c2.38,3.52,4.63,7.16,6.77,10.88S312.21,91,314,94.8a7,7,0,0,1-1.48,8l-14,13.29a6.89,6.89,0,0,0-1.85,7.07c1.42,4.49,2.63,9.07,3.62,13.62a6.94,6.94,0,0,0,5,5.2L324,146.84a7,7,0,0,1,5.2,6.31Q329.65,159,329.65,164.83Z"/></g></g></svg>